<svg width="512" height="512" viewBox="0 0 512 512" fill="none" xmlns="http://www.w3.org/2000/svg">
<rect width="512" height="512" fill="#0A7BD2"/>
<path d="M31 327.498V344.552H256.395V327.498H31Z" fill="white"/>
<path d="M255.423 344.635V327.545C295.648 327.545 330.421 294.845 333.518 253.878C336.617 212.911 308.293 176.375 268.546 170.064C228.799 163.754 190.954 189.786 181.733 229.78C173.018 267.581 192.634 305.877 227.173 320.493H194.706C169.086 297.65 156.61 261.506 164.86 225.721C176.157 176.728 222.517 144.839 271.207 152.569C319.899 160.299 354.597 205.058 350.801 255.243C347.007 305.425 304.699 344.635 255.423 344.635Z" fill="white"/>
<path d="M320.936 326.728H481V344.313H290.969C301.965 340.235 312.087 334.249 320.936 326.728Z" fill="white"/>
<path d="M249.514 232.564L240.676 241.592C236.591 245.764 236.591 252.539 240.676 256.711L249.518 265.743C253.603 269.915 260.235 269.915 264.319 265.743L273.158 256.715C277.244 252.543 277.244 245.768 273.158 241.597L264.317 232.564C260.233 228.392 253.601 228.392 249.514 232.564Z" fill="white"/>
<path d="M105.262 247.803C105.262 162.335 173.135 93.0001 256.811 93.0001C340.483 93.0001 408.36 162.335 408.36 247.803C408.36 273.376 402.283 297.503 391.526 318.762H389.17C400.091 297.561 406.273 273.418 406.273 247.803C406.273 163.514 339.328 95.1319 256.811 95.1319C174.289 95.1319 107.349 163.514 107.349 247.803C107.349 273.418 113.528 297.561 124.447 318.762H122.093C111.337 297.503 105.262 273.376 105.262 247.803ZM124.499 247.803C124.499 173.19 183.762 112.651 256.811 112.651C329.856 112.651 389.122 173.19 389.122 247.803C389.122 273.828 381.912 298.137 369.425 318.762H364.635C377.566 298.311 385.073 273.949 385.073 247.803C385.073 175.473 327.62 116.787 256.811 116.787C185.997 116.787 128.548 175.473 128.548 247.803C128.548 273.949 136.053 298.311 148.982 318.762H144.192C131.706 298.137 124.499 273.828 124.499 247.803ZM143.735 247.803C143.735 184.041 194.385 132.302 256.811 132.302C319.233 132.302 369.884 184.041 369.884 247.803C369.884 274.55 360.973 299.179 346.019 318.762H338.262C354.23 299.659 363.874 274.874 363.874 247.803C363.874 187.432 315.912 138.441 256.811 138.441C197.705 138.441 149.746 187.432 149.746 247.803C149.746 274.874 159.388 299.659 175.355 318.762H167.598C152.645 299.179 143.735 274.55 143.735 247.803Z" fill="white"/>
<path d="M168.765 395.424C169.425 395.424 169.975 395.654 170.415 396.114C170.875 396.574 171.105 397.124 171.105 397.764C171.105 398.424 170.875 398.984 170.415 399.444C169.975 399.884 169.425 400.104 168.765 400.104C168.125 400.104 167.575 399.884 167.115 399.444C166.655 398.984 166.425 398.424 166.425 397.764C166.425 397.124 166.655 396.574 167.115 396.114C167.575 395.654 168.125 395.424 168.765 395.424ZM174.135 395.424C174.795 395.424 175.345 395.654 175.785 396.114C176.245 396.574 176.475 397.124 176.475 397.764C176.475 398.424 176.245 398.984 175.785 399.444C175.345 399.884 174.795 400.104 174.135 400.104C173.495 400.104 172.945 399.884 172.485 399.444C172.025 398.984 171.795 398.424 171.795 397.764C171.795 397.124 172.025 396.574 172.485 396.114C172.945 395.654 173.495 395.424 174.135 395.424ZM184.425 396.234V405.894C184.425 405.974 184.435 406.064 184.455 406.164H185.955V410.034H184.965L183.705 408.654H183.615C182.855 409.574 181.885 410.034 180.705 410.034H164.205C162.825 410.034 161.615 409.594 160.575 408.714C159.175 407.554 158.475 406.054 158.475 404.214V400.284L160.815 398.394H163.095V404.214C163.095 404.834 163.315 405.334 163.755 405.714C164.095 406.014 164.485 406.164 164.925 406.164H179.205C179.405 406.164 179.565 406.094 179.685 405.954C179.765 405.834 179.805 405.704 179.805 405.564V396.234H184.425ZM220.469 396.234V406.314C220.469 407.334 220.099 408.214 219.359 408.954C218.639 409.674 217.769 410.034 216.749 410.034H209.999L208.739 408.624H208.649C207.909 409.564 206.939 410.034 205.739 410.034H198.989L197.729 408.624H197.639C196.899 409.564 195.929 410.034 194.729 410.034H185.729V406.164H193.409C193.689 406.164 193.829 406.024 193.829 405.744V399.684H198.449V404.394C198.449 404.694 198.459 405.164 198.479 405.804V406.164H204.419C204.699 406.164 204.839 406.024 204.839 405.744V397.944H209.459V404.904C209.459 405.244 209.469 405.664 209.489 406.164H215.429C215.709 406.164 215.849 406.024 215.849 405.744V396.234H220.469ZM229.248 388.554V405.744C229.248 405.784 229.258 405.844 229.278 405.924L229.308 405.954C229.368 406.094 229.488 406.164 229.668 406.164H230.778V410.034H228.348C227.368 410.034 226.508 409.684 225.768 408.984C225.008 408.244 224.628 407.354 224.628 406.314V388.554H229.248ZM245.464 388.104V392.454L240.304 395.694C242.424 396.734 244.144 398.254 245.464 400.254C246.684 402.094 247.294 403.994 247.294 405.954C247.294 407.134 246.944 408.114 246.244 408.894C245.544 409.654 244.644 410.034 243.544 410.034H230.524V406.164H242.194C242.474 406.164 242.614 406.014 242.614 405.714C242.614 404.154 241.864 402.684 240.364 401.304C238.604 399.744 236.634 398.874 234.454 398.694C234.274 398.674 234.184 398.574 234.184 398.394V394.644L245.464 388.104ZM253.183 396.054C253.703 395.934 254.423 395.874 255.343 395.874C257.803 395.874 259.783 396.644 261.283 398.184C262.623 399.564 263.293 401.314 263.293 403.434V406.314C263.293 407.414 262.893 408.324 262.093 409.044C261.373 409.704 260.533 410.034 259.573 410.034H250.153V406.164H258.253C258.533 406.164 258.673 406.024 258.673 405.744V403.794C258.673 402.574 258.293 401.574 257.533 400.794C256.793 400.014 255.823 399.624 254.623 399.624C254.003 399.624 253.523 399.664 253.183 399.744V396.054ZM273.557 410.034C271.437 410.034 269.727 409.284 268.427 407.784C267.307 406.504 266.747 404.974 266.747 403.194C266.747 400.934 267.337 399.194 268.517 397.974C269.897 396.574 271.657 395.874 273.797 395.874C275.337 395.874 276.637 396.224 277.697 396.924C279.297 397.984 280.097 399.504 280.097 401.484V406.164H281.057V410.034H280.067C279.827 412.234 278.947 413.954 277.427 415.194C276.507 415.974 275.367 416.534 274.007 416.874C273.087 417.114 272.117 417.234 271.097 417.234C270.657 417.234 270.197 417.204 269.717 417.144L267.707 414.684V413.064C268.627 413.264 269.507 413.364 270.347 413.364C273.147 413.364 274.807 412.254 275.327 410.034H273.557ZM275.477 401.514C275.477 400.894 275.247 400.414 274.787 400.074C274.487 399.854 274.147 399.744 273.767 399.744C273.027 399.744 272.427 400.034 271.967 400.614C271.527 401.174 271.307 401.924 271.307 402.864C271.307 405.064 272.397 406.164 274.577 406.164H275.477V401.514ZM290.876 396.234V406.314C290.876 407.194 290.586 407.984 290.006 408.684C289.246 409.584 288.286 410.034 287.126 410.034H280.856V406.164H285.806C285.926 406.164 286.026 406.134 286.106 406.074C286.206 405.994 286.256 405.884 286.256 405.744V396.234H290.876ZM287.966 411.414C288.606 411.414 289.156 411.644 289.616 412.104C290.076 412.564 290.306 413.124 290.306 413.784C290.306 414.424 290.076 414.974 289.616 415.434C289.156 415.894 288.606 416.124 287.966 416.124C287.306 416.124 286.746 415.894 286.286 415.434C285.846 414.974 285.626 414.424 285.626 413.784C285.626 413.124 285.846 412.564 286.286 412.104C286.746 411.644 287.306 411.414 287.966 411.414ZM310.766 395.874C311.426 395.874 311.976 396.104 312.416 396.564C312.876 397.004 313.106 397.554 313.106 398.214C313.106 398.874 312.876 399.434 312.416 399.894C311.956 400.334 311.406 400.554 310.766 400.554C310.126 400.554 309.576 400.324 309.116 399.864C308.656 399.404 308.426 398.854 308.426 398.214C308.426 397.574 308.646 397.024 309.086 396.564C309.546 396.104 310.106 395.874 310.766 395.874ZM321.176 396.234V408.894C321.176 411.454 320.386 413.474 318.806 414.954C317.146 416.454 314.936 417.204 312.176 417.204H309.536C306.456 417.204 304.096 416.294 302.456 414.474C301.176 413.034 300.536 411.174 300.536 408.894V404.304L302.876 402.444H305.156V408.324C305.156 410.384 305.716 411.784 306.836 412.524C307.676 413.064 309.016 413.334 310.856 413.334C312.956 413.334 314.426 412.964 315.266 412.224C316.126 411.464 316.556 410.164 316.556 408.324V396.234H321.176ZM334.171 396.234V406.164H335.671V410.034H334.111C333.891 412.334 332.891 414.154 331.111 415.494C329.611 416.594 327.851 417.144 325.831 417.144C325.611 417.144 325.261 417.134 324.781 417.114L322.891 414.744V413.154C322.951 413.174 323.061 413.194 323.221 413.214C323.741 413.314 324.201 413.364 324.601 413.364C326.261 413.324 327.491 412.904 328.291 412.104C329.111 411.284 329.521 410.034 329.521 408.354V396.234H334.171ZM340.865 401.484C340.865 399.784 341.485 398.404 342.725 397.344C343.845 396.384 345.385 395.904 347.345 395.904C349.025 395.904 350.445 396.324 351.605 397.164C353.345 398.424 354.215 400.334 354.215 402.894C354.215 405.194 353.655 407.114 352.535 408.654C351.395 410.174 349.885 410.934 348.005 410.934C346.385 410.934 345.105 410.334 344.165 409.134C343.445 409.734 342.635 410.034 341.735 410.034H335.465V406.164H340.415C340.555 406.164 340.665 406.124 340.745 406.044C340.825 405.944 340.865 405.844 340.865 405.744V401.484ZM345.485 406.164C345.945 406.744 346.535 407.034 347.255 407.034C347.975 407.034 348.555 406.694 348.995 406.014C349.435 405.334 349.655 404.434 349.655 403.314C349.655 402.114 349.425 401.204 348.965 400.584C348.525 400.024 347.925 399.744 347.165 399.744C346.665 399.744 346.245 399.924 345.905 400.284C345.625 400.644 345.485 401.054 345.485 401.514V406.164Z" fill="white"/>
</svg>
